<svg aria-hidden="true" style="position: absolute; width: 0; height: 0; overflow: hidden;" version="1.1" xmlns="http://www.w3.org/2000/svg" xmlns:xlink="http://www.w3.org/1999/xlink">
<defs>
<symbol id="rocket" viewBox="0 0 32 32">
<path fill="#7eb101" style="fill: var(--color1, #7eb101)" d="M7.233 13.633l3.533 1.5c0.4-0.8 0.828-1.589 1.283-2.367s0.939-1.522 1.45-2.233l-2.633-0.533-3.633 3.633zM12.367 16.333l4.433 4.433c1.267-0.578 2.456-1.233 3.567-1.967s2.011-1.444 2.7-2.133c1.8-1.8 3.122-3.644 3.967-5.533s1.3-4.022 1.367-6.4c-2.378 0.067-4.511 0.522-6.4 1.367s-3.733 2.167-5.533 3.967c-0.689 0.689-1.4 1.589-2.133 2.7s-1.389 2.3-1.967 3.567zM20 13.133c-0.444-0.444-0.667-0.995-0.667-1.65s0.222-1.206 0.667-1.65 0.994-0.667 1.65-0.667c0.656 0 1.206 0.222 1.65 0.667s0.667 0.994 0.667 1.65c0 0.655-0.222 1.206-0.667 1.65s-0.994 0.667-1.65 0.667-1.206-0.222-1.65-0.667zM19.5 25.9l3.633-3.633-0.533-2.633c-0.711 0.511-1.456 0.994-2.233 1.45s-1.567 0.883-2.367 1.283l1.5 3.533zM30.367 2.767c0.2 3.022-0.178 5.778-1.133 8.267s-2.533 4.833-4.733 7.033l-0.133 0.133 0.733 3.667c0.067 0.333 0.050 0.656-0.050 0.967s-0.272 0.589-0.517 0.833l-5.7 5.733-2.833-6.6-5.667-5.667-6.6-2.833 5.733-5.7c0.244-0.244 0.522-0.417 0.833-0.517s0.633-0.117 0.967-0.050l3.667 0.733c0.022-0.022 0.044-0.039 0.067-0.050s0.044-0.028 0.067-0.050c2.2-2.2 4.544-3.783 7.033-4.75s5.244-1.35 8.267-1.15zM5.967 21.167c0.778-0.778 1.728-1.172 2.85-1.183s2.072 0.372 2.85 1.15c0.778 0.778 1.161 1.728 1.15 2.85s-0.406 2.072-1.183 2.85c-0.578 0.578-1.472 1.055-2.683 1.433s-3.028 0.733-5.45 1.067c0.333-2.422 0.683-4.244 1.050-5.467s0.839-2.122 1.417-2.7zM7.367 22.6c-0.311 0.333-0.589 0.856-0.833 1.567s-0.456 1.622-0.633 2.733c1.111-0.178 2.022-0.389 2.733-0.633s1.233-0.522 1.567-0.833c0.422-0.378 0.639-0.85 0.65-1.417s-0.183-1.061-0.583-1.483c-0.422-0.4-0.917-0.595-1.483-0.583s-1.039 0.228-1.417 0.65z"></path>
</symbol>
<symbol id="touch" viewBox="0 0 27 32">
<path fill="#7eb101" style="fill: var(--color1, #7eb101)" d="M13.053 1.123c1.703 0 3.158 0.594 4.365 1.782s1.811 2.634 1.811 4.337c0 0.973-0.211 1.89-0.632 2.751s-1.015 1.591-1.782 2.189h-0.954v-1.403c0.543-0.43 0.959-0.954 1.249-1.572s0.435-1.272 0.435-1.965c0-1.235-0.44-2.283-1.319-3.144s-1.937-1.291-3.172-1.291-2.292 0.43-3.172 1.291c-0.88 0.861-1.319 1.909-1.319 3.144 0 0.692 0.145 1.347 0.435 1.965s0.706 1.142 1.249 1.572v2.021c-1.048-0.543-1.871-1.31-2.47-2.302s-0.898-2.077-0.898-3.256c0-1.703 0.604-3.149 1.811-4.337s2.662-1.782 4.365-1.782zM11.986 24.702c-0.318 0-0.618-0.061-0.898-0.182s-0.524-0.285-0.73-0.491l-5.782-5.782 1.572-1.628c0.262-0.262 0.557-0.463 0.884-0.604s0.669-0.164 1.025-0.070l2.19 0.505v-9.151c0-0.786 0.271-1.45 0.814-1.993s1.207-0.814 1.993-0.814 1.45 0.271 1.993 0.814c0.543 0.543 0.814 1.207 0.814 1.993v4.828h0.73c0.094 0 0.178 0.019 0.253 0.056s0.159 0.075 0.253 0.112l4.154 2.021c0.449 0.206 0.781 0.538 0.997 0.996s0.276 0.931 0.182 1.418l-1.011 6.119c-0.094 0.543-0.356 0.987-0.786 1.333s-0.917 0.519-1.46 0.519h-7.186zM11.761 23.018h7.888l1.207-6.989-5.137-2.554h-1.544v-6.175c0-0.337-0.103-0.608-0.309-0.814s-0.477-0.309-0.814-0.309-0.608 0.103-0.814 0.309c-0.206 0.206-0.309 0.477-0.309 0.814v11.2l-4.323-0.926-0.646 0.646 4.8 4.8zM19.649 23.018v0z"></path>
</symbol>
<symbol id="arrow-right" viewBox="0 0 37 32">
<path d="M34.667 5.333v16c0 2.946-2.388 5.333-5.333 5.333h-21.333c-2.946 0-5.333-2.388-5.333-5.333v-16c0-2.946 2.388-5.333 5.333-5.333h21.333c2.946 0 5.333 2.388 5.333 5.333z"></path>
<path fill="#2c2c2c" style="fill: var(--color3, #2c2c2c)" d="M25.7 12.73l-9.288-8.85c-0.155-0.148-0.361-0.23-0.575-0.23s-0.42 0.082-0.575 0.23l-0.010 0.010c-0.075 0.072-0.135 0.158-0.176 0.253s-0.062 0.198-0.062 0.302 0.021 0.207 0.062 0.302c0.041 0.096 0.101 0.182 0.176 0.253l8.747 8.333-8.747 8.33c-0.075 0.072-0.135 0.158-0.176 0.253s-0.062 0.198-0.062 0.302 0.021 0.207 0.062 0.302c0.041 0.096 0.101 0.182 0.176 0.253l0.010 0.010c0.155 0.148 0.361 0.23 0.575 0.23s0.42-0.082 0.575-0.23l9.288-8.85c0.082-0.078 0.147-0.171 0.191-0.275s0.067-0.215 0.067-0.328c0-0.113-0.023-0.225-0.067-0.328s-0.109-0.197-0.191-0.275z"></path>
</symbol>
<symbol id="arrow-left" viewBox="0 0 37 32">
<path  d="M2.667 21.333v-16c0-2.946 2.388-5.333 5.333-5.333h21.333c2.946 0 5.333 2.388 5.333 5.333v16c0 2.946-2.388 5.333-5.333 5.333h-21.333c-2.946 0-5.333-2.388-5.333-5.333z"></path>
<path d="M11.634 13.937l9.288 8.85c0.155 0.148 0.361 0.23 0.575 0.23s0.42-0.082 0.575-0.23l0.010-0.010c0.075-0.072 0.135-0.158 0.176-0.253s0.062-0.198 0.062-0.302-0.021-0.207-0.062-0.302c-0.041-0.096-0.101-0.182-0.176-0.253l-8.747-8.333 8.747-8.33c0.075-0.072 0.135-0.158 0.176-0.253s0.062-0.198 0.062-0.302-0.021-0.207-0.062-0.302c-0.041-0.096-0.101-0.182-0.176-0.253l-0.010-0.010c-0.155-0.148-0.361-0.23-0.575-0.23s-0.42 0.082-0.575 0.23l-9.288 8.85c-0.082 0.078-0.147 0.171-0.191 0.275s-0.067 0.215-0.067 0.328c0 0.113 0.023 0.225 0.067 0.328s0.109 0.197 0.191 0.275z"></path>
</symbol>
<symbol id="close" viewBox="0 0 32 32">
<path d="M19.141 16.123l10.676-10.668c0.36-0.42 0.548-0.96 0.527-1.513s-0.251-1.077-0.642-1.467c-0.391-0.391-0.915-0.62-1.469-0.641s-1.093 0.167-1.514 0.526l-10.676 10.558-10.742-10.734c-0.42-0.36-0.961-0.548-1.514-0.526s-1.077 0.25-1.469 0.641c-0.391 0.391-0.62 0.915-0.642 1.467s0.167 1.093 0.527 1.513l10.72 10.844-10.501 10.361c-0.23 0.197-0.417 0.439-0.549 0.711s-0.206 0.569-0.218 0.871 0.039 0.604 0.15 0.885c0.11 0.282 0.278 0.538 0.492 0.751s0.47 0.381 0.752 0.492c0.282 0.11 0.584 0.161 0.886 0.15s0.599-0.086 0.872-0.217c0.273-0.132 0.515-0.318 0.712-0.548l10.479-10.471 10.413 10.405c0.42 0.359 0.961 0.547 1.514 0.526s1.077-0.25 1.469-0.641c0.391-0.391 0.621-0.915 0.642-1.467s-0.167-1.093-0.527-1.512l-10.369-10.295z"></path>
</symbol>
</defs>
</svg>
